<?xml version="1.0" standalone="no"?>
<!DOCTYPE svg PUBLIC "-//W3C//DTD SVG 20010904//EN"
 "http://www.w3.org/TR/2001/REC-SVG-20010904/DTD/svg10.dtd">
<svg version="1.0" xmlns="http://www.w3.org/2000/svg"
 width="512.000000pt" height="512.000000pt" viewBox="0 0 512.000000 512.000000"
 preserveAspectRatio="xMidYMid meet">
<metadata>
Created by potrace 1.14, written by Peter Selinger 2001-2017
</metadata>
<g transform="translate(0.000000,512.000000) scale(0.100000,-0.100000)"
fill="#000000" stroke="none">
<path d="M1220 4762 c-59 -29 -70 -65 -70 -234 l0 -147 -213 -3 -214 -3 -48
-30 c-32 -20 -56 -45 -72 -74 -22 -43 -23 -51 -23 -307 0 -161 4 -274 11 -291
5 -15 24 -42 40 -59 l29 -30 -26 -25 c-51 -46 -54 -68 -54 -349 0 -280 4 -305
53 -354 25 -25 25 -25 5 -43 -11 -10 -29 -35 -40 -56 -18 -35 -19 -57 -16
-312 l3 -273 30 -43 c54 -77 79 -84 323 -87 l212 -3 0 -717 c0 -802 -3 -768
70 -804 33 -17 128 -18 1548 -18 1381 0 1517 1 1548 16 67 32 64 -6 64 834 0
753 0 762 -20 767 -17 5 -20 14 -20 68 0 54 3 63 20 68 19 5 20 14 20 206 0
190 -1 202 -20 213 -16 10 -20 24 -20 65 0 42 4 54 20 63 20 10 20 21 20 448
l0 437 -548 548 -547 547 -1015 0 c-946 0 -1017 -1 -1050 -18z m2008 -104 l-3
-43 -997 -3 -998 -2 0 29 c0 65 -69 61 1016 61 l985 0 -3 -42z m557 -946
c-247 -1 -456 0 -462 3 -10 3 -13 106 -13 466 l0 461 463 -463 462 -464 -450
-3z m-1541 574 c18 -7 42 -26 54 -41 21 -27 22 -36 22 -286 l0 -259 -27 -30
c-17 -19 -44 -35 -68 -40 -22 -5 -346 -10 -735 -10 -389 0 -713 5 -735 10 -24
5 -51 21 -67 40 l-28 30 0 259 c0 250 1 259 22 286 43 56 24 54 806 55 592 0
729 -2 756 -14z m16 -761 c56 -29 60 -50 60 -315 0 -194 -3 -247 -15 -270 -33
-64 15 -60 -815 -60 -830 0 -782 -4 -815 60 -22 43 -22 498 0 540 32 62 -1 59
813 60 645 0 747 -2 772 -15z m670 -1465 c46 -25 47 -22 -101 -632 -77 -320
-143 -586 -146 -591 -3 -5 -16 -12 -29 -17 -32 -12 -73 6 -80 36 -4 14 51 261
132 596 112 463 143 577 161 596 25 25 36 27 63 12z m-550 -267 c22 -29 21
-66 -4 -91 -7 -7 -136 -60 -287 -118 -151 -58 -280 -112 -288 -119 -7 -7 -10
-21 -7 -33 6 -16 69 -45 289 -132 276 -108 317 -130 317 -170 0 -30 -39 -70
-69 -70 -23 0 -464 184 -638 266 -58 28 -83 62 -83 114 0 56 25 87 97 120 242
112 593 258 620 259 23 1 37 -6 53 -26z m1167 -109 c175 -75 328 -145 340
-156 36 -33 48 -73 35 -117 -7 -21 -20 -45 -30 -55 -28 -25 -658 -296 -689
-296 -55 0 -85 70 -47 111 9 10 138 66 288 125 150 59 279 115 288 126 12 14
15 25 9 37 -6 9 -124 61 -290 125 -154 59 -287 116 -295 125 -36 39 -4 111 49
111 13 0 167 -61 342 -136z"/>
<path d="M916 4115 c-24 -24 -24 -266 0 -290 27 -27 44 -1 44 66 l0 59 80 0
80 0 0 -64 c0 -63 8 -79 38 -69 9 4 12 43 12 153 0 109 -3 149 -12 152 -29 11
-38 -4 -38 -63 l0 -59 -80 0 -80 0 0 54 c0 62 -18 87 -44 61z"/>
<path d="M1523 4123 c-10 -3 -13 -43 -13 -153 0 -150 6 -174 35 -150 11 9 15
36 15 99 l0 86 41 -73 c28 -49 46 -72 57 -70 9 2 34 37 56 78 l41 75 3 -95 c3
-101 14 -128 38 -96 21 30 20 268 -2 290 -8 9 -20 14 -25 11 -5 -4 -32 -49
-60 -101 -28 -52 -53 -94 -55 -94 -2 0 -24 40 -48 88 -46 92 -63 112 -83 105z"/>
<path d="M1881 4116 c-8 -9 -11 -59 -9 -152 l3 -139 100 0 c82 0 100 3 100 15
0 12 -16 16 -72 18 l-73 3 0 122 c0 82 -4 127 -12 135 -16 16 -23 15 -37 -2z"/>
<path d="M1210 4100 c0 -17 7 -20 50 -20 l50 0 0 -123 c0 -130 7 -154 42 -136
16 9 18 23 18 134 l0 125 50 0 c43 0 50 3 50 20 0 19 -7 20 -130 20 -123 0
-130 -1 -130 -20z"/>
<path d="M953 3373 c-9 -3 -13 -36 -13 -114 0 -121 -8 -149 -44 -149 -13 0
-26 -6 -28 -12 -9 -25 4 -38 39 -38 25 0 43 8 64 29 29 29 29 30 29 148 0 131
-8 153 -47 136z"/>
<path d="M1114 3366 c-64 -29 -83 -95 -40 -135 13 -12 50 -30 82 -40 67 -20
89 -44 60 -67 -26 -19 -77 -18 -121 3 -30 14 -38 15 -45 4 -4 -8 -6 -19 -4
-25 14 -36 117 -56 178 -36 66 21 87 112 33 142 -12 6 -49 21 -82 32 -41 15
-61 27 -63 40 -8 41 57 59 112 31 39 -20 56 -19 56 5 0 44 -106 73 -166 46z"/>
</g>
</svg>
